<?xml version="1.0" encoding="UTF-8" standalone="no"?>
<!-- Created with Inkscape (http://www.inkscape.org/) -->

<svg
   width="186.86185mm"
   height="124.04807mm"
   viewBox="0 0 186.86185 124.04807"
   version="1.1"
   id="svg1"
   xml:space="preserve"
   xmlns="http://www.w3.org/2000/svg"
   xmlns:svg="http://www.w3.org/2000/svg"><defs
     id="defs1" /><g
     id="layer1"
     transform="translate(41.6056,-138.68318)"><g
       style="display:inline;fill:none"
       id="g24"
       transform="matrix(1.6536458,0,0,1.6536458,-54.007941,94.861632)"><path
         id="path2"
         style="display:inline;fill:#000000;fill-opacity:1"
         d="m 39.523438,29.798828 c -5.757829,0.171756 -11.582969,0.694524 -17.112102,2.446702 -0.934738,0.346581 -1.874384,0.604478 -2.71407,1.135329 -3.296885,6.478137 -5.773882,13.41739 -7.79569,20.416831 -2.5055123,8.965028 -4.119784,18.19562 -4.0742015,27.508926 0.08396,4.726871 0.5468277,9.597395 2.4753595,13.994165 1.051732,2.384153 2.827879,4.689506 5.449942,5.401259 0.714311,0.22611 1.541752,0.29838 2.210215,-0.10243 1.502244,0.14887 2.995157,0.5174 4.503906,0.51953 1.795993,-0.12525 2.761631,-1.87957 3.437742,-3.331324 2.537962,-5.238557 4.455081,-10.733553 6.691299,-16.109425 0.991141,-2.222205 2.641662,-4.304947 4.92174,-5.287766 2.039132,-0.884905 4.33428,-0.755808 6.471094,-0.375 13.377276,-0.0065 26.756134,0.01302 40.132422,-0.0098 2.79496,-0.766197 6.004565,-0.293383 8.203125,1.683594 2.239064,1.882908 3.203536,4.736941 4.213534,7.379623 1.704657,4.464118 3.032161,9.08519 5.055487,13.418866 0.73334,1.589472 2.34345,2.810112 4.14422,2.704702 1.42609,-0.0628 2.81907,-0.44461 4.23324,-0.636 1.35677,0.79555 2.96487,-0.035 4.18212,-0.722525 2.65689,-1.806329 3.90966,-4.974453 4.74862,-7.952558 1.58637,-6.181081 1.46248,-12.62083 0.88376,-18.922006 -1.17456,-11.829826 -4.42777,-23.412527 -9.03325,-34.363852 -0.78567,-1.788828 -1.57031,-3.586773 -2.5,-5.28125 -3.99607,-1.872634 -8.42675,-2.565092 -12.776622,-3.071146 -3.468125,-0.346776 -6.977624,-0.563295 -10.469469,-0.40151 -0.07498,0.229925 0.48045,0.513167 0.325814,0.897806 0.567627,4.590921 -0.292151,9.558489 -3.294089,13.200533 -3.358786,4.143077 -8.70739,6.148376 -13.905054,6.562263 -6.380699,0.494059 -13.019517,-1.00772 -18.317938,-4.66717 -3.781057,-2.582689 -6.710755,-6.665616 -7.183827,-11.297733 -0.168732,-1.429532 -0.112054,-2.878604 0.0958,-4.301168 0.366161,0.06146 0.488829,-0.507852 0.05823,-0.426237 -1.086838,-0.03412 -2.174274,-0.03021 -3.261357,-0.01126 z" /><path
         id="path1"
         style="display:inline;fill:#ffffff;fill-opacity:1"
         d="m 63.011719,27.806641 c -5.07612,0.157877 -10.188251,0.414183 -15.158203,1.273437 -1.758624,0.423172 -3.839606,0.623035 -5.181316,2.020368 -1.303745,1.512498 -0.804543,3.66105 -0.476084,5.434241 0.784484,4.200761 1.459054,8.426256 2.356277,12.603385 0.589253,2.260383 2.803013,3.722197 5.051,3.922831 2.730353,0.18144 5.474788,0.03392 8.210669,0.08167 6.632806,-0.01439 13.266705,0.02875 19.898829,-0.02148 2.465688,-0.139799 4.711303,-1.71868 5.658376,-3.972447 0.931178,-2.106087 0.968605,-4.457668 1.428361,-6.686052 0.479692,-3.029031 1.033694,-6.132844 1.3742,-9.128611 0.168556,-1.431875 -0.717912,-2.798407 -2.017586,-3.35927 -2.158775,-0.963043 -4.561037,-1.16599 -6.874672,-1.517754 -4.726886,-0.572826 -9.498076,-0.722256 -14.269851,-0.650318 z" /><path
         id="path25"
         style="display:inline;fill:#ffffff;fill-opacity:1;stroke-width:1"
         d="m 85.675781,29.789062 c -0.351126,0.113764 -0.977967,-0.188379 -1.183593,0.183594 0.116779,0.351421 0.702427,0.295546 0.865861,0.679119 0.828314,1.207416 0.770618,2.815895 0.524322,4.200222 -0.745419,3.91748 -1.482081,7.819125 -2.011102,11.767242 -0.243938,2.976897 0.444653,6.234424 2.433419,8.626855 3.341574,3.246271 6.423137,6.846665 8.566232,11.011765 3.958649,7.489851 7.15419,15.353463 10.37559,23.181601 1.26888,3.076042 2.4301,6.199967 3.74019,9.256614 0.39629,1.039818 1.53305,1.700246 2.63207,1.387936 2.57564,-0.466132 4.55081,-2.478152 5.68702,-4.743324 2.05657,-4.045478 2.63142,-8.628736 2.83099,-13.071848 0.24864,-8.091801 -0.93196,-16.117075 -2.8231,-23.973434 -2.05912,-8.248406 -4.8666,-16.337094 -8.63985,-23.963373 -0.29618,-0.540823 -0.47581,-1.229699 -1.18188,-1.339587 -4.88569,-1.987418 -10.213723,-2.629065 -15.426331,-3.017332 -2.126536,-0.142 -4.25854,-0.209841 -6.389838,-0.18605 z" /><path
         fill-rule="evenodd"
         clip-rule="evenodd"
         d="m 99,37.4632 c -1.3807,0 -2.5,1.1193 -2.5,2.5 0,1.3807 1.1193,2.5 2.5,2.5 1.381,0 2.5,-1.1193 2.5,-2.5 0,-1.3807 -1.119,-2.5 -2.5,-2.5 z m -3.5,2.5 c 0,-1.933 1.567,-3.5 3.5,-3.5 1.933,0 3.5,1.567 3.5,3.5 0,1.933 -1.567,3.5 -3.5,3.5 -1.933,0 -3.5,-1.567 -3.5,-3.5 z"
         fill="#000000"
         id="path3"
         style="display:inline" /><path
         fill-rule="evenodd"
         clip-rule="evenodd"
         d="m 99,53.4632 c -1.3807,0 -2.5,1.1193 -2.5,2.5 0,1.3807 1.1193,2.5 2.5,2.5 1.381,0 2.5,-1.1193 2.5,-2.5 0,-1.3807 -1.119,-2.5 -2.5,-2.5 z m -3.5,2.5 c 0,-1.933 1.567,-3.5 3.5,-3.5 1.933,0 3.5,1.567 3.5,3.5 0,1.933 -1.567,3.5 -3.5,3.5 -1.933,0 -3.5,-1.567 -3.5,-3.5 z"
         fill="#000000"
         id="path4"
         style="display:inline" /><path
         fill-rule="evenodd"
         clip-rule="evenodd"
         d="m 91,45.4632 c -1.3807,0 -2.5,1.1193 -2.5,2.5 0,1.3807 1.1193,2.5 2.5,2.5 1.3807,0 2.5,-1.1193 2.5,-2.5 0,-1.3807 -1.1193,-2.5 -2.5,-2.5 z m -3.5,2.5 c 0,-1.933 1.567,-3.5 3.5,-3.5 1.933,0 3.5,1.567 3.5,3.5 0,1.933 -1.567,3.5 -3.5,3.5 -1.933,0 -3.5,-1.567 -3.5,-3.5 z"
         fill="#000000"
         id="path5" /><path
         fill-rule="evenodd"
         clip-rule="evenodd"
         d="m 82.5,57.4632 c -3.866,0 -7,3.134 -7,7 0,3.866 3.134,7 7,7 3.866,0 7,-3.134 7,-7 0,-3.866 -3.134,-7 -7,-7 z m -8,7 c 0,-4.4183 3.5817,-8 8,-8 4.4183,0 8,3.5817 8,8 0,4.4183 -3.5817,8 -8,8 -4.4183,0 -8,-3.5817 -8,-8 z"
         fill="#000000"
         id="path6"
         style="display:inline;fill:#ffffff;fill-opacity:1" /><path
         fill-rule="evenodd"
         clip-rule="evenodd"
         d="m 45.5,57.4632 c -3.866,0 -7,3.134 -7,7 0,3.866 3.134,7 7,7 3.866,0 7,-3.134 7,-7 0,-3.866 -3.134,-7 -7,-7 z m -8,7 c 0,-4.4183 3.5817,-8 8,-8 4.4183,0 8,3.5817 8,8 0,4.4183 -3.5817,8 -8,8 -4.4183,0 -8,-3.5817 -8,-8 z"
         fill="#000000"
         id="path7"
         style="display:inline;fill:#ffffff;fill-opacity:1" /><path
         fill-rule="evenodd"
         clip-rule="evenodd"
         d="m 39.5,64.4632 c 0,-3.3137 2.6863,-6 6,-6 3.3137,0 6,2.6863 6,6 0,3.3137 -2.6863,6 -6,6 -3.3137,0 -6,-2.6863 -6,-6 z"
         fill="#000000"
         id="path8"
         style="display:inline;fill:#ffffff;fill-opacity:1" /><path
         fill-rule="evenodd"
         clip-rule="evenodd"
         d="m 76.5,64.4632 c 0,-3.3137 2.6863,-6 6,-6 3.3137,0 6,2.6863 6,6 0,3.3137 -2.6863,6 -6,6 -3.3137,0 -6,-2.6863 -6,-6 z"
         fill="#000000"
         id="path9"
         style="display:inline;fill:#ffffff;fill-opacity:1" /><path
         id="path10"
         style="display:inline;fill:#ffffff;fill-opacity:1"
         d="m 94.455078,26.84375 c -0.919942,0.07455 -1.98234,0.156756 -2.876953,0.503906 -0.07195,0.903749 -0.05916,1.856429 -0.0098,2.763672 0.603151,0.217678 1.347161,0.02829 1.997874,0.140055 4.19251,0.228487 8.378981,0.885825 12.388851,2.137289 0.36142,-0.331273 0.0472,-1.032013 0.15234,-1.495313 0.20934,-0.624114 -0.38133,-0.869629 -0.81446,-1.130056 -3.28677,-1.958708 -7.056378,-3.09705 -10.837886,-2.919553 z" /><path
         id="path11"
         style="display:inline;fill:#ffffff;fill-opacity:1"
         d="m 31.533203,26.841797 c -3.447609,0.213613 -6.963071,1.409498 -9.90625,3.394531 -0.205945,0.612455 -0.03562,1.36216 -0.08008,2.023438 0.301188,0.337142 0.847091,-0.178857 1.230469,-0.189454 4.300541,-1.244268 8.788179,-1.766004 13.246094,-1.90625 0.20802,-0.625321 0.01934,-1.38809 0.08398,-2.062109 0.213815,-0.682145 -0.258657,-0.98952 -0.881689,-0.996513 -1.233897,-0.254125 -2.438514,-0.323378 -3.69253,-0.263643 z" /><path
         id="path13"
         style="display:inline;fill:#ffffff;fill-opacity:1"
         d="m 39.914062,29.798828 c -5.826505,0.170075 -11.732946,0.68624 -17.321379,2.42045 -0.927042,0.333253 -1.91912,0.60775 -2.748933,1.126425 -3.478921,6.692973 -6.05336,13.82628 -8.137224,21.065262 -2.4318385,8.749642 -3.9849189,17.753979 -3.8734862,26.839382 0.1250916,4.56699 0.6165801,9.227881 2.5433052,13.45258 1.081643,2.36954 2.91696,4.612469 5.544965,5.273879 1.030886,0.381684 2.356243,0.139404 2.89119,-0.908447 0.969608,-1.913639 1.619521,-3.97624 2.462089,-5.948822 3.487701,-8.636774 6.968988,-17.296581 11.188867,-25.605971 1.461919,-2.930712 3.23833,-5.703464 5.383343,-8.184189 1.256049,-1.572433 2.77473,-2.906744 4.110232,-4.401643 1.842386,-2.466302 2.45208,-5.661482 2.142726,-8.616827 -0.578586,-4.116295 -1.386045,-8.185589 -2.108315,-12.281641 -0.05213,-1.241922 -0.08035,-2.779257 0.948011,-3.662078 0.173788,-0.129802 0.809695,-0.243229 0.460938,-0.539063 -1.157887,-0.06777 -2.325498,-0.04171 -3.486329,-0.0293 z" /><path
         fill-rule="evenodd"
         clip-rule="evenodd"
         d="m 107,45.4632 c -1.381,0 -2.5,1.1193 -2.5,2.5 0,1.3807 1.119,2.5 2.5,2.5 1.381,0 2.5,-1.1193 2.5,-2.5 0,-1.3807 -1.119,-2.5 -2.5,-2.5 z m -3.5,2.5 c 0,-1.933 1.567,-3.5 3.5,-3.5 1.933,0 3.5,1.567 3.5,3.5 0,1.933 -1.567,3.5 -3.5,3.5 -1.933,0 -3.5,-1.567 -3.5,-3.5 z"
         fill="#000000"
         id="path14"
         style="display:inline" /><path
         fill-rule="evenodd"
         clip-rule="evenodd"
         d="m 60.5,69.9632 c 0,-0.2761 0.2239,-0.5 0.5,-0.5 h 6 c 0.2761,0 0.5,0.2239 0.5,0.5 0,0.2761 -0.2239,0.5 -0.5,0.5 h -6 c -0.2761,0 -0.5,-0.2239 -0.5,-0.5 z"
         fill="#000000"
         id="path15"
         style="display:inline;fill:#ffffff;fill-opacity:1" /><path
         fill-rule="evenodd"
         clip-rule="evenodd"
         d="m 29.3648,52.0834 c -0.1976,-0.2108 -0.532,-0.2108 -0.7296,0 l -2,2.1333 C 26.5484,54.3094 26.5,54.4316 26.5,54.5587 v 3.4045 c 0,0.2762 0.2239,0.5 0.5,0.5 h 4 c 0.2761,0 0.5,-0.2238 0.5,-0.5 v -3.4045 c 0,-0.1271 -0.0484,-0.2493 -0.1352,-0.342 z m -1.4591,-0.684 c 0.5926,-0.6321 1.596,-0.6321 2.1886,0 l 2,2.1333 c 0.2606,0.2781 0.4057,0.6449 0.4057,1.026 v 3.4045 c 0,0.8284 -0.6716,1.5 -1.5,1.5 h -4 c -0.8284,0 -1.5,-0.6716 -1.5,-1.5 v -3.4045 c 0,-0.3811 0.1451,-0.7479 0.4057,-1.026 z"
         fill="#000000"
         id="path16" /><path
         fill-rule="evenodd"
         clip-rule="evenodd"
         d="m 28.6352,45.843 c 0.1976,0.2107 0.532,0.2107 0.7296,0 l 2,-2.1333 C 31.4516,43.617 31.5,43.4948 31.5,43.3677 v -3.4045 c 0,-0.2762 -0.2239,-0.5 -0.5,-0.5 h -4 c -0.2761,0 -0.5,0.2238 -0.5,0.5 v 3.4045 c 0,0.1271 0.0484,0.2493 0.1352,0.342 z m 1.4591,0.684 c -0.5926,0.6321 -1.596,0.6321 -2.1886,0 l -2,-2.1334 C 25.6451,44.1156 25.5,43.7488 25.5,43.3677 v -3.4045 c 0,-0.8284 0.6716,-1.5 1.5,-1.5 h 4 c 0.8284,0 1.5,0.6716 1.5,1.5 v 3.4045 c 0,0.3811 -0.1451,0.7479 -0.4057,1.0259 z"
         fill="#000000"
         id="path17" /><path
         fill-rule="evenodd"
         clip-rule="evenodd"
         d="m 25.8798,49.328 c 0.2107,-0.1976 0.2107,-0.532 0,-0.7296 l -2.1333,-2 c -0.0927,-0.0869 -0.2149,-0.1352 -0.342,-0.1352 H 20 c -0.2762,0 -0.5,0.2239 -0.5,0.5 v 4 c 0,0.2761 0.2238,0.5 0.5,0.5 h 3.4045 c 0.1271,0 0.2493,-0.0484 0.342,-0.1352 z m 0.684,-1.4591 c 0.6321,0.5926 0.6321,1.596 0,2.1886 l -2.1333,2 c -0.2781,0.2606 -0.6449,0.4057 -1.026,0.4057 H 20 c -0.8284,0 -1.5,-0.6716 -1.5,-1.5 v -4 c 0,-0.8284 0.6716,-1.5 1.5,-1.5 h 3.4045 c 0.3811,0 0.7479,0.145 1.026,0.4057 z"
         fill="#000000"
         id="path18" /><path
         fill-rule="evenodd"
         clip-rule="evenodd"
         d="m 32.1202,48.5984 c -0.2107,0.1976 -0.2107,0.532 0,0.7296 l 2.1333,2 c 0.0927,0.0868 0.2149,0.1352 0.342,0.1352 H 38 c 0.2762,0 0.5,-0.2239 0.5,-0.5 v -4 c 0,-0.2761 -0.2238,-0.5 -0.5,-0.5 h -3.4045 c -0.1271,0 -0.2493,0.0483 -0.342,0.1352 z m -0.684,1.4591 c -0.6321,-0.5926 -0.6321,-1.596 0,-2.1886 l 2.1333,-2 c 0.2781,-0.2607 0.6449,-0.4057 1.026,-0.4057 H 38 c 0.8284,0 1.5,0.6716 1.5,1.5 v 4 c 0,0.8284 -0.6716,1.5 -1.5,1.5 h -3.4045 c -0.3811,0 -0.7479,-0.1451 -1.026,-0.4057 z"
         fill="#000000"
         id="path19" /><path
         fill-rule="evenodd"
         clip-rule="evenodd"
         d="m 91.2425,32.9931 c -0.5358,-0.134 -1.0787,0.1918 -1.2126,0.7276 l -1,4 c -0.134,0.5358 0.1918,1.0787 0.7276,1.2127 0.5358,0.1339 1.0787,-0.1919 1.2127,-0.7276 l 1,-4 C 92.1041,33.67 91.7783,33.127 91.2425,32.9931 Z"
         fill="#000000"
         id="path20" /><path
         fill-rule="evenodd"
         clip-rule="evenodd"
         d="m 36.7575,32.9931 c 0.5358,-0.134 1.0787,0.1918 1.2126,0.7276 l 1,4 c 0.134,0.5358 -0.1918,1.0787 -0.7276,1.2127 -0.5358,0.1339 -1.0787,-0.1919 -1.2127,-0.7276 l -1,-4 C 35.8959,33.67 36.2217,33.127 36.7575,32.9931 Z"
         fill="#000000"
         id="path21" /><path
         fill-rule="evenodd"
         clip-rule="evenodd"
         d="m 59.5,57.9632 c 0,-0.2761 0.2239,-0.5 0.5,-0.5 h 8 c 0.2761,0 0.5,0.2239 0.5,0.5 0,0.2762 -0.2239,0.5 -0.5,0.5 h -8 c -0.2761,0 -0.5,-0.2238 -0.5,-0.5 z"
         fill="#000000"
         id="path22"
         style="display:inline;fill:#ffffff;fill-opacity:1" /><path
         fill-rule="evenodd"
         clip-rule="evenodd"
         d="m 57.5,55.9632 c 0,-0.2761 0.2239,-0.5 0.5,-0.5 h 12 c 0.2761,0 0.5,0.2239 0.5,0.5 0,0.2762 -0.2239,0.5 -0.5,0.5 H 58 c -0.2761,0 -0.5,-0.2238 -0.5,-0.5 z"
         fill="#000000"
         id="path23"
         style="display:inline;fill:#ffffff;fill-opacity:1" /><path
         fill-rule="evenodd"
         clip-rule="evenodd"
         d="m 46.9088,28.9459 c 4.4288,-0.9929 13.2194,-1.4827 18.0856,-1.4827 5.0798,0 11.8197,0.2957 17.1138,1.4827 2.252,0.505 3.4574,1.343 4.0116,2.4141 0.54,1.0435 0.3832,2.1821 0.2609,3.0459 -0.4864,3.4349 -1.1668,7.5541 -1.9429,12.2523 l -0.0023,0.014 c -0.4054,2.4539 -1.4293,4.1641 -2.7776,5.2578 -1.3433,1.0896 -2.9668,1.5332 -4.5175,1.5332 H 50.9049 c -2.0274,0 -3.5999,-0.5123 -4.7386,-1.3909 -1.1404,-0.8799 -1.8044,-2.0956 -2.0677,-3.4236 -0.5072,-2.5585 -1.2419,-6.6398 -2.0669,-11.2224 -0.1196,-0.6643 -0.2411,-1.3392 -0.364,-2.0214 -0.4154,-2.3047 -0.0506,-3.7979 1.0253,-4.784 0.5166,-0.4733 1.1635,-0.7963 1.8716,-1.0473 0.7071,-0.2506 1.5073,-0.44 2.3442,-0.6277 z m 18.0856,-0.4827 c -4.8506,0 -13.5502,0.4907 -17.8668,1.4585 -0.8399,0.1883 -1.5855,0.3664 -2.229,0.5945 -0.6425,0.2277 -1.1508,0.4946 -1.5299,0.842 -0.7153,0.6555 -1.1029,1.7275 -0.7169,3.8693 0.123,0.6826 0.2445,1.3575 0.3641,2.0216 0.8254,4.5851 1.5583,8.656 2.0636,11.2051 0.2227,1.123 0.7733,2.1132 1.6977,2.8264 0.9261,0.7145 2.2686,1.1826 4.1277,1.1826 h 26.2355 c 1.3644,0 2.7532,-0.3897 3.8876,-1.3099 1.1295,-0.9161 2.0489,-2.3922 2.4209,-4.6441 l 7e-4,-0.0044 c 0.7773,-4.706 1.4562,-8.8158 1.9409,-12.2391 0.1279,-0.9034 0.214,-1.7256 -0.1588,-2.4462 -0.3586,-0.693 -1.2217,-1.4223 -3.3423,-1.8978 -5.1829,-1.1621 -11.8329,-1.4585 -16.895,-1.4585 z"
         fill="#000000"
         id="path24"
         style="display:inline" /><path
         fill-rule="evenodd"
         clip-rule="evenodd"
         d="m 31.988,29.9758 c 4.338,-0.4917 8.454,-0.5664 10.9267,-0.4835 0.249,0.0084 0.4539,0.1988 0.4804,0.4466 0.0265,0.2478 -0.1336,0.4772 -0.3752,0.538 -0.505759,0.235338 -0.8329,0.6326 -1.0173,1.4931 -0.1751,0.8169 -0.1561,1.758 -0.0807,2.3793 0.3306,1.6652 1.1779,6.2258 1.9603,11.3417 0.8091,5.2911 -1.3401,9.03 -2.5897,10.2871 l -10e-4,0.0011 c -1.669,1.6789 -3.3998,3.4202 -5.8259,6.8372 -2.4699,3.4786 -6.0012,11.3083 -9.1778,18.9435 -2.3865,5.7362 -4.5539,11.3149 -5.8991,14.7772 -0.4408,1.1346 -0.7933,2.042 -1.0363,2.6531 -0.0051,0.0128 -0.0107,0.0255 -0.0169,0.0378 -0.0237,0.0477 -0.0489,0.1009 -0.0762,0.1583 -0.0888,0.1872 -0.1991,0.4197 -0.3476,0.6547 l 3.121,0.422 c 0.5423,-0.004 0.9548,-0.109 1.3004,-0.3 0.3555,-0.1957 0.6758,-0.5013 0.9999,-0.9557 0.5604,-0.7859 1.0708,-1.9196 1.7792,-3.4931 0.1363,-0.3028 0.2799,-0.6219 0.4326,-0.9579 1.2079,-2.6574 2.4452,-5.8378 3.5152,-8.5885 l 0.0929,-0.2388 c 0.5442,-1.3987 1.0436,-2.6787 1.4685,-3.7017 0.418,-1.0064 0.7831,-1.8129 1.0596,-2.2302 0.7008,-1.0576 1.7286,-2.5972 3.4924,-3.6771 1.774,-1.0861 4.2354,-1.6759 7.7535,-0.9833 h 40.0696 c 2.8057,-0.6944 5.2802,-0.355 7.3212,0.8102 2.0482,1.1694 3.6123,3.1432 4.644,5.6244 1.1893,2.8602 1.9431,4.9963 2.6486,7.0385 0.0668,0.1936 0.1333,0.3863 0.1996,0.5787 0.6326,1.8354 1.2541,3.6382 2.1541,5.889 0.094,0.2337 0.184,0.4662 0.274,0.6962 0.463,1.1895 0.9,2.3106 1.572,3.1616 0.389,0.4925 0.845,0.8737 1.413,1.1097 0.566,0.234 1.279,0.338 2.204,0.223 l 2.647,-0.449 c -0.141,-0.2279 -0.247,-0.4515 -0.333,-0.6327 -0.028,-0.0574 -0.053,-0.1106 -0.077,-0.1583 -0.006,-0.0123 -0.011,-0.025 -0.016,-0.0378 -0.243,-0.6111 -0.596,-1.5183 -1.037,-2.6528 -1.345,-3.4623 -3.512,-9.0411 -5.899,-14.7775 -3.1764,-7.6352 -6.7077,-15.4649 -9.1776,-18.9435 -2.4261,-3.417 -4.1569,-5.1583 -5.8258,-6.8372 l -0.0011,-0.0011 c -1.2496,-1.2571 -3.3988,-4.996 -2.5897,-10.2871 0.7824,-5.1158 1.6297,-9.6765 1.9603,-11.3417 0.0754,-0.6213 0.0944,-1.5624 -0.0807,-2.3793 -0.1844,-0.8605 -0.5312,-1.3708 -1.0173,-1.4931 -0.2416,-0.0608 -0.4017,-0.2902 -0.3752,-0.538 0.0265,-0.2478 0.2314,-0.4382 0.4804,-0.4466 2.4727,-0.0829 6.5887,-0.0082 10.9267,0.4835 4.328,0.4907 8.927,1.4018 12.334,3.015 0.098,0.0461 0.177,0.1225 0.228,0.2177 2.635,4.9697 8.471,18.7272 10.833,34.1724 1.475,9.6502 1.358,17.2302 0.24,22.7278 -1.112,5.4685 -3.24,8.9914 -5.9,10.3293 -1.724,0.867 -2.9,0.956 -3.742,0.504 -0.031,-0.017 -0.061,-0.034 -0.09,-0.052 l -3.331,0.566 c -0.007,10e-4 -0.015,0.002 -0.022,0.003 -1.069,0.134 -1.964,0.023 -2.722,-0.291 -0.757,-0.313 -1.343,-0.816 -1.814,-1.4127 -0.775,-0.9803 -1.276,-2.2709 -1.736,-3.4569 -0.085,-0.221 -0.17,-0.4384 -0.254,-0.6495 -0.91,-2.2745 -1.5389,-4.099 -2.1713,-5.9339 -0.0664,-0.1926 -0.1329,-0.3853 -0.1996,-0.5787 -0.7028,-2.0346 -1.449,-4.1485 -2.6268,-6.9811 C 94.07,79.8263 92.6341,78.05 90.8218,77.0153 89.017,75.9849 86.7916,75.6625 84.1804,76.3215 c -0.04,0.0101 -0.0811,0.0152 -0.1224,0.0152 H 43.8778 c -0.0328,0 -0.0656,-0.0032 -0.0979,-0.0097 -3.3336,-0.6657 -5.5465,-0.0957 -7.0844,0.8459 -1.5562,0.9527 -2.4795,2.3182 -3.1809,3.3766 -0.2135,0.3222 -0.5431,1.0341 -0.9697,2.0613 -0.4197,1.0106 -0.9148,2.2794 -1.46,3.6808 l -0.0973,0.2501 c -1.0668,2.7423 -2.3127,5.9451 -3.5324,8.6284 -0.1461,0.3214 -0.2855,0.6315 -0.4197,0.9299 -0.7048,1.5677 -1.2653,2.8143 -1.8884,3.6879 -0.3809,0.5341 -0.8057,0.9611 -1.3314,1.2511 -0.5287,0.291 -1.1242,0.424 -1.8157,0.424 -0.0224,0 -0.0448,-10e-4 -0.067,-0.004 l -3.9156,-0.53 c -0.0075,0.005 -0.015,0.009 -0.0225,0.013 -0.8417,0.452 -2.0178,0.363 -3.7418,-0.504 C 11.5931,99.1001 9.4646,95.5772 8.35275,90.1087 7.23499,84.6111 7.11774,77.0311 8.5935,67.3809 10.9555,51.9357 16.7914,38.1782 19.426,33.2085 c 0.0505,-0.0952 0.1304,-0.1716 0.2279,-0.2177 3.4075,-1.6132 8.0058,-2.5243 12.3341,-3.015 z M 17.6386,99.9887 c -0.0084,0.0054 -0.0167,0.011 -0.0248,0.0173 -0.0297,0.019 -0.0605,0.038 -0.0926,0.055 -0.4016,0.216 -1.1855,0.305 -2.8187,-0.5163 C 12.4623,98.4179 10.4258,95.2859 9.3327,89.9095 8.24547,84.5621 8.11775,77.107 9.582,67.5321 11.9009,52.3684 17.6033,38.8363 20.2318,33.8244 c 3.2428,-1.4988 7.6388,-2.3754 11.8689,-2.8549 3.5627,-0.4039 6.974,-0.5227 9.4181,-0.5045 -0.2476,0.3965 -0.4005,0.8592 -0.494,1.2955 -0.2072,0.9664 -0.1793,2.0363 -0.0931,2.7298 0.0015,0.012 0.0034,0.0239 0.0058,0.0358 0.3253,1.6365 1.1734,6.1972 1.9562,11.316 0.7588,4.9623 -1.2733,8.3877 -2.3104,9.431 -1.6842,1.6944 -3.4597,3.4808 -5.9331,6.9644 -2.548,3.5886 -6.1217,11.5334 -9.2857,19.1383 -2.392,5.7494 -4.569,11.3529 -5.9133,14.8131 -0.4338,1.1164 -0.7808,2.0097 -1.0205,2.6128 -0.0268,0.0542 -0.0529,0.1075 -0.0785,0.16 -0.2114,0.4329 -0.3911,0.8009 -0.7136,1.027 z m 92.7064,-0.0116 c 0.042,0.0309 0.087,0.0589 0.134,0.0839 0.401,0.216 1.185,0.305 2.819,-0.5163 2.24,-1.1268 4.276,-4.2588 5.369,-9.6352 1.088,-5.3474 1.215,-12.8025 -0.249,-22.3774 -2.319,-15.1637 -8.021,-28.6958 -10.65,-33.7077 -3.243,-1.4988 -7.639,-2.3754 -11.8687,-2.8549 -3.5627,-0.4039 -6.974,-0.5227 -9.4181,-0.5045 0.2476,0.3965 0.4005,0.8592 0.494,1.2955 0.2072,0.9664 0.1792,2.0363 0.0931,2.7298 -7e-4,0.0058 -0.0016,0.0116 -0.0025,0.0173 -10e-4,0.0062 -0.0021,0.0124 -0.0033,0.0185 -0.3253,1.6365 -1.1734,6.1972 -1.9562,11.316 -0.7588,4.9623 1.2733,8.3877 2.3104,9.431 1.6842,1.6944 3.4597,3.4808 5.9331,6.9644 2.548,3.5886 6.1217,11.5334 9.2852,19.1383 2.392,5.7494 4.569,11.3528 5.914,14.813 0.434,1.1165 0.781,2.0098 1.02,2.613 0.027,0.0541 0.053,0.1075 0.079,0.1599 0.2,0.4105 0.372,0.7626 0.664,0.9907 0.012,0.0078 0.023,0.016 0.033,0.0247 z"
         fill="#000000"
         id="path26"
         style="display:inline" /><path
         fill-rule="evenodd"
         clip-rule="evenodd"
         d="m 22.2178,30.6544 v 0.8745 c 4.8891,-1.5019 10.4507,-1.9606 13.21,-2.0109 v -1.6745 c -2.7066,-0.6329 -5.4477,-0.3197 -7.8145,0.3598 -2.3264,0.6679 -4.2598,1.6809 -5.3955,2.4511 z m 5.1195,-3.4123 c 2.5883,-0.743 5.6656,-1.0864 8.7194,-0.272 0.2188,0.0584 0.3711,0.2566 0.3711,0.4831 v 2.56 c 0,0.2761 -0.2238,0.5 -0.5,0.5 -2.5833,0 -8.8395,0.4475 -14.0528,2.1746 -0.1524,0.0505 -0.3198,0.0248 -0.45,-0.0692 -0.1301,-0.094 -0.2072,-0.2448 -0.2072,-0.4054 v -1.82 c 0,-0.1614 0.078,-0.313 0.2094,-0.4068 1.189,-0.8493 3.323,-2.0015 5.9101,-2.7443 z"
         fill="#000000"
         id="path27"
         style="display:inline" /><path
         fill-rule="evenodd"
         clip-rule="evenodd"
         d="m 105.428,30.6544 v 0.8745 C 100.539,30.027 94.977,29.5683 92.2177,29.518 v -1.6745 c 2.7066,-0.6329 5.4477,-0.3197 7.8143,0.3598 2.327,0.6679 4.26,1.6809 5.396,2.4511 z m -5.12,-3.4123 c -2.5881,-0.743 -5.6653,-1.0864 -8.7192,-0.272 -0.2188,0.0584 -0.3711,0.2566 -0.3711,0.4831 v 2.56 c 0,0.2761 0.2238,0.5 0.5,0.5 2.5833,0 8.8393,0.4475 14.0523,2.1746 0.153,0.0505 0.32,0.0248 0.45,-0.0692 0.131,-0.094 0.208,-0.2448 0.208,-0.4054 v -1.82 c 0,-0.1614 -0.078,-0.313 -0.21,-0.4068 -1.189,-0.8493 -3.323,-2.0015 -5.91,-2.7443 z"
         fill="#000000"
         id="path28"
         style="display:inline" /><path
         fill-rule="evenodd"
         clip-rule="evenodd"
         d="m 32.2871,29.9703 c 4.3908,-0.4865 8.5569,-0.5603 11.0594,-0.4783 0.2497,0.0082 0.455,0.1993 0.4809,0.4478 0.026,0.2484 -0.1354,0.4779 -0.3779,0.5375 -0.4983,0.1225 -0.847,0.6294 -1.0324,1.475 -0.1766,0.8057 -0.1575,1.7345 -0.0814,2.3481 0.3348,1.6482 1.1925,6.1605 1.9845,11.2221 0.8202,5.2417 -1.3586,8.9449 -2.6238,10.1888 l -9e-4,9e-4 c -1.6897,1.6614 -3.442,3.3842 -5.898,6.765 -2.4999,3.4411 -6.0745,11.1871 -9.2905,18.7419 -2.416,5.6755 -4.6101,11.1949 -5.9719,14.6207 -0.4463,1.1228 -0.8033,2.0207 -1.0493,2.6255 -0.0053,0.013 -0.0111,0.0257 -0.0175,0.0382 -0.024,0.0472 -0.0495,0.0999 -0.0772,0.1567 -0.2185,0.4499 -0.5654,1.164 -1.2796,1.5398 -0.8455,0.444 -2.0294,0.359 -3.7741,-0.4989 C 11.6468,98.3784 9.49011,94.8921 8.36364,89.4773 7.23153,84.0353 7.113,76.5331 8.60723,66.9835 10.9988,51.6992 16.9077,38.0855 19.5753,33.1676 c 0.0513,-0.0946 0.1318,-0.1702 0.2295,-0.2154 3.4478,-1.5953 8.1011,-2.4964 12.4823,-2.9819 z M 20.3752,33.791 c -2.6608,4.9587 -8.4328,18.3461 -10.77999,33.3471 -1.4822,9.4727 -1.35272,16.847 -0.25253,22.1355 1.10582,5.3157 3.16572,8.4141 5.43592,9.5301 1.6542,0.8132 2.4546,0.7279 2.8676,0.5108 0.405,-0.2129 0.6034,-0.6101 0.8416,-1.0869 0.026,-0.0519 0.0524,-0.1048 0.0795,-0.1584 0.2426,-0.5966 0.5938,-1.4802 1.0328,-2.5845 1.361,-3.4237 3.5651,-8.9683 5.9868,-14.6573 3.2031,-7.5244 6.8215,-15.3865 9.4016,-18.938 2.5042,-3.4471 4.3018,-5.2147 6.0068,-6.8911 1.0498,-1.0323 3.1042,-4.4177 2.3369,-9.3212 -0.7924,-5.0646 -1.6509,-9.577 -1.9802,-11.1959 -0.0025,-0.0122 -0.0045,-0.0244 -0.0061,-0.0367 -0.0874,-0.6874 -0.1157,-1.7479 0.0944,-2.7064 0.0943,-0.4298 0.2477,-0.8835 0.4938,-1.2731 -2.4751,-0.018 -5.9294,0.0995 -9.5369,0.4992 -4.2839,0.4747 -8.7369,1.3425 -12.022,2.8268 z"
         fill="#000000"
         id="path29"
         style="display:inline" /><path
         fill-rule="evenodd"
         clip-rule="evenodd"
         d="M 95.7129,29.9703 C 91.3221,29.4838 87.156,29.41 84.6535,29.492 c -0.2497,0.0082 -0.455,0.1993 -0.4809,0.4478 -0.026,0.2484 0.1354,0.4779 0.3779,0.5375 0.4983,0.1225 0.847,0.6294 1.0324,1.475 0.1767,0.8057 0.1575,1.7346 0.0814,2.3481 -0.3348,1.6483 -1.1925,6.1606 -1.9845,11.2221 -0.8202,5.2417 1.3586,8.9449 2.6238,10.1888 l 10e-4,10e-4 c 1.6897,1.6613 3.4419,3.3842 5.8979,6.7649 2.4999,3.4411 6.0745,11.1871 9.2905,18.7419 2.416,5.6755 4.61,11.195 5.972,14.6208 0.446,1.1227 0.803,2.0206 1.049,2.6254 0.005,0.013 0.011,0.0257 0.018,0.0382 0.024,0.0472 0.049,0.0999 0.077,0.1567 0.218,0.4499 0.565,1.164 1.279,1.5398 0.846,0.444 2.03,0.359 3.775,-0.4989 2.69,-1.3227 4.847,-4.809 5.973,-10.2238 1.132,-5.442 1.251,-12.9442 -0.243,-22.4938 -2.392,-15.2843 -8.301,-28.898 -10.968,-33.8159 -0.052,-0.0946 -0.132,-0.1702 -0.23,-0.2154 -3.448,-1.5953 -8.101,-2.4964 -12.4821,-2.9819 z m 11.9121,3.8207 c 2.661,4.9587 8.433,18.3461 10.78,33.3471 1.482,9.4727 1.353,16.847 0.252,22.1355 -1.106,5.3157 -3.165,8.4141 -5.436,9.5301 -1.654,0.8132 -2.454,0.7279 -2.867,0.5108 -0.405,-0.2129 -0.604,-0.6102 -0.842,-1.087 -0.026,-0.0518 -0.052,-0.1047 -0.079,-0.1583 -0.243,-0.5966 -0.594,-1.4802 -1.033,-2.5845 -1.361,-3.4237 -3.565,-8.9683 -5.987,-14.6573 -3.203,-7.5244 -6.8214,-15.3865 -9.4015,-18.938 -2.5042,-3.4471 -4.3018,-5.2147 -6.0068,-6.8911 -1.0498,-1.0323 -3.1042,-4.4178 -2.3369,-9.3212 0.7924,-5.0646 1.6509,-9.577 1.9802,-11.1959 0.0025,-0.0122 0.0045,-0.0244 0.0061,-0.0367 0.0874,-0.6874 0.1157,-1.7479 -0.0944,-2.7064 -0.0943,-0.4298 -0.2477,-0.8835 -0.4938,-1.2731 2.4751,-0.018 5.9294,0.0995 9.5369,0.4992 4.2839,0.4747 8.7372,1.3425 12.0222,2.8268 z"
         fill="#000000"
         id="path30"
         style="display:inline" /></g></g><g
     id="layer2"><path
       d="m 87.37238,23.496563 -18.19459,10.61345 c -0.23507,0.136459 -0.50035,0.206288 -0.7642,0.206288 -0.26084,0 -0.5215,-0.06663 -0.75515,-0.201668 -0.47157,-0.27132 -0.76119,-0.771849 -0.76119,-1.314488 V 11.573067 c 0,-0.542818 0.28962,-1.043168 0.76119,-1.314487 0.46997,-0.2713199 1.05081,-0.2668781 1.51918,0.0046 L 87.3722,20.876669 c 0.46695,0.271319 0.75213,0.771848 0.75213,1.310046 0,0.53802 -0.285,1.03837 -0.75195,1.309867 z M 103.08636,12.325015 90.95657,33.552094 c -0.27896,0.489689 -0.78997,0.764207 -1.31751,0.764207 -0.25479,0 -0.51403,-0.06362 -0.75052,-0.20007 -0.72779,-0.415418 -0.98098,-1.34185 -0.56396,-2.068035 l 12.12978,-21.227077 c 0.414,-0.727783 1.34025,-0.9855981 2.06803,-0.56396 0.7278,0.415241 0.98098,1.341672 0.56397,2.067856 z m 7.7812,20.474952 c 0,0.838479 -0.67768,1.516156 -1.51616,1.516156 -0.83848,0 -1.51615,-0.677677 -1.51615,-1.516156 v -21.2269 c 0,-0.838479 0.67767,-1.516156 1.51615,-1.516156 0.83848,0 1.51616,0.677677 1.51616,1.516156 z m 9.09729,0 c 0,0.838479 -0.67767,1.516156 -1.51615,1.516156 -0.83848,0 -1.51616,-0.677677 -1.51616,-1.516156 v -21.2269 c 0,-0.838479 0.67768,-1.516156 1.51616,-1.516156 0.83848,0 1.51615,0.677677 1.51615,1.516156 z"
       id="path1-9"
       style="display:inline;fill:#000000;stroke-width:0.177681" /></g></svg>
